<svg xmlns="http://www.w3.org/2000/svg" width="7.21mm" height="10.97mm" viewBox="0 0 20.44 31.09">
  <defs>
    <style>
      .cls-1 {
        fill: #fff;
      }
    </style>
  </defs>
  <g id="图层_2" data-name="图层 2">
    <g id="图层_1-2" data-name="图层 1">
      <g>
        <path class="cls-1" d="M20.39,8.21a1.15,1.15,0,0,0-.29-1.13L18.79,5.74a1.17,1.17,0,0,1-.3-.53L18,3.4a1.16,1.16,0,0,0-.82-.84L15.4,2.05a1.29,1.29,0,0,1-.52-.3L13.57.4A1.17,1.17,0,0,0,12.44.09L10.62.56a1.22,1.22,0,0,1-.6,0L8.22,0A1.19,1.19,0,0,0,7.08.33L5.74,1.65a1.15,1.15,0,0,1-.53.29L3.4,2.41a1.15,1.15,0,0,0-.84.81L2.05,5a1.05,1.05,0,0,1-.3.52L.4,6.87A1.16,1.16,0,0,0,.09,8L.56,9.81a1.26,1.26,0,0,1,0,.61L0,12.23a1.16,1.16,0,0,0,.29,1.12L1.65,14.7a1,1,0,0,1,.29.52L2.41,17a1.16,1.16,0,0,0,.82.84l1.8.5a1.15,1.15,0,0,1,.52.31L6.87,20A1.17,1.17,0,0,0,8,20.35l1.82-.47a1.26,1.26,0,0,1,.61,0l1.81.5a1.14,1.14,0,0,0,1.12-.29l1.35-1.31a1.13,1.13,0,0,1,.52-.3L17,18a1.16,1.16,0,0,0,.84-.82l.5-1.81a1.21,1.21,0,0,1,.31-.52L20,13.57a1.18,1.18,0,0,0,.32-1.13l-.46-1.82a1.11,1.11,0,0,1,0-.6ZM10.22,17.69a7.48,7.48,0,1,1,7.47-7.47A7.47,7.47,0,0,1,10.22,17.69Z"/>
        <path class="cls-1" d="M3.83,19.34C4.9,20.44,7.11,22.15,9.75,21a.44.44,0,0,1,.62.42l-.32,9.26a.48.48,0,0,1-.76.36L7.5,29.69a2,2,0,0,0-2.1-.16L2.94,30.62a.48.48,0,0,1-.67-.48l.79-10.53A.45.45,0,0,1,3.83,19.34Z"/>
        <path class="cls-1" d="M11.33,21.14c.84,0,2.4.37,3.49-1.64a.38.38,0,0,1,.64,0L18,23.16a.39.39,0,0,1-.32.61H14.84a.38.38,0,0,0-.37.29l-1.14,4.25a.39.39,0,0,1-.76,0l-1.63-6.68A.39.39,0,0,1,11.33,21.14Z"/>
      </g>
    </g>
  </g>
</svg>
